<?xml version="1.0" standalone="no"?><!-- Generator: Gravit.io --><svg xmlns="http://www.w3.org/2000/svg" xmlns:xlink="http://www.w3.org/1999/xlink" style="isolation:isolate" viewBox="141 -57 80 89" width="80" height="89"><g><g><path d=" M 177.2 9.6 L 177.2 9.6 L 176.8 9.5 L 176.7 8.6 L 176.2 9.5 L 176.2 9.5 Q 175.8 9.4 175 9.1 L 175 9.1 L 175 9.1 Q 173.2 8.5 172.4 8.6 L 172.4 8.6 L 172.4 8.6 Q 171.3 10.4 171.4 11.3 L 171.4 11.3 L 171.4 11.3 Q 170.8 11.4 170.5 10.3 L 170.5 10.3 L 170.4 10.2 L 169.6 9.2 L 169.6 9.2 Q 169.9 10.9 168.5 11.6 L 168.5 11.6 L 168.5 11.6 Q 167.4 7.8 165.4 8.2 L 165.4 8.2 L 165.4 8.2 Q 163.7 8.6 163.5 10.5 L 163.5 10.5 L 163.1 11.8 L 163.1 11.8 Q 161.4 11.6 160.7 8.4 L 160.7 8.4 L 159 -0.6 L 159 -0.6 Q 158.1 -0.4 157.6 -3.1 L 157.6 -3.1 L 157.6 -3.1 Q 157.1 -5.8 157 -6.6 L 157 -6.6 L 157 -6.6 Q 156.2 -6.4 155.1 -11.8 L 155.1 -11.8 L 154.2 -17 L 154.2 -17 Q 153.5 -20.4 152.2 -24.6 L 152.2 -24.6 L 152.2 -24.6 Q 151 -28.9 149.8 -30.9 L 149.8 -30.9 L 151.1 -32 L 151 -32.9 L 149.6 -31.7 L 149.4 -32.6 L 149 -34.8 L 149 -35.6 Q 149.4 -37.1 141 -43.7 L 141 -43.7 L 142.3 -43.8 L 142.3 -43.8 Q 142.5 -44.2 149.9 -47 L 149.9 -47 L 149.9 -47 Q 157.2 -49.9 158.5 -50.1 L 158.5 -50.1 L 160.4 -50.5 L 160.4 -50.5 Q 166.8 -51.9 170.5 -51.2 L 170.5 -51.2 L 170.5 -51.2 Q 173.6 -50.6 174.7 -49.6 L 174.7 -49.6 L 174.7 -49.6 Q 177 -47.7 177.6 -44.7 L 177.6 -44.7 L 177.6 -44.7 Q 178.8 -39 179 -22.7 L 179 -22.7 L 179 -17.5 L 179 -17.5 Q 178.6 -17.4 178.4 -17.9 L 178.4 -17.9 L 178.4 -17.9 Q 178.7 -16.3 178.1 -15.4 L 178.1 -15.4 L 178.1 -15.4 Q 177.6 -14.5 176.1 -13.4 L 176.1 -13.4 L 176.1 -13.4 Q 177.8 -13.7 178.8 -12.2 L 178.8 -12.2 L 178.8 -12.2 Q 179.8 -10.8 180.2 -8.7 L 180.2 -8.7 L 181.6 2.1 L 181.6 2.1 Q 183.3 4.5 182.9 6.3 L 181.6 8.2 L 180.1 8.4 Q 180.3 8.1 179 8.3 L 179 8.3 L 178.8 8.4 L 179.1 8.6 L 179.1 8.6 Q 178 9.4 177.2 9.6 Z  M 168.1 -1.9 L 168.1 -1.9 L 168.5 0.2 L 168.9 1.9 L 168.9 1.9 Q 169 1.9 169.8 1.7 L 169.8 1.7 L 169.8 1.7 Q 171.4 1.4 173.1 2 L 173.1 2 L 172.8 2.1 L 173.2 2.5 L 173.2 2.5 Q 172.9 1.2 173.4 0.1 L 173.4 0.1 L 172.8 -3 L 172.8 -3 Q 172.7 -3.5 173 -3.6 L 173 -3.6 L 173.4 -3.6 L 173.4 -3.6 Q 173.4 -4 172.9 -4.4 L 172.9 -4.4 L 172.9 -4.4 Q 172.4 -4.8 172.2 -5.7 L 172.2 -5.7 L 172.2 -5.7 Q 172 -6.5 172 -7 L 172 -7 L 172 -7 Q 171.4 -7.5 170.1 -7.4 L 170.1 -7.4 L 170.1 -7.4 Q 168.8 -7.2 168.2 -8 L 168.2 -8 L 168.2 -8 Q 168.3 -7.4 168.2 -7.3 L 168.2 -7.3 L 168.2 -7.3 Q 168 -7.1 167.7 -7.1 L 167.7 -7.1 L 167.7 -7.1 Q 167 -7.2 167.5 -5.1 L 167.5 -5.1 L 166.7 -5 L 166.9 -4 L 166.9 -4 Q 167.7 -4.2 168.1 -1.9 Z  M 169 -25.1 L 169 -25.1 L 169 -25.6 L 169 -25.6 Q 168.2 -26.3 166.8 -26.1 L 166.8 -26.1 L 166.8 -26.1 Q 165.4 -25.9 164.5 -26.6 L 164.5 -26.6 L 164.7 -25.6 L 163.4 -25.4 L 164.2 -24.6 L 163.6 -24.5 L 163.6 -24.2 L 163.6 -24.2 Q 163.7 -23.8 163.8 -23.6 L 163.8 -23.6 L 164 -23.7 L 164 -23.7 Q 164.3 -23.8 165 -20.6 L 165 -20.6 L 165.2 -19.3 L 164.8 -18.4 L 165.4 -18.5 L 165.6 -17.6 L 165.6 -17.6 Q 165.8 -17.7 167.4 -17.4 L 167.4 -17.4 L 167.4 -17.4 Q 169.1 -17.1 169.3 -16.9 L 169.3 -16.9 L 169.2 -17.4 L 170 -17.4 L 169.8 -16.9 L 170 -16.7 L 170 -16.7 Q 169.9 -17.4 170.3 -17.5 L 170.3 -17.5 L 170.3 -17.5 Q 170.7 -17.6 170.3 -19.3 L 170.3 -19.3 L 169.4 -22.9 L 169.4 -22.9 Q 169.3 -23.6 169.7 -23.8 L 169.7 -23.8 L 169.7 -23.8 Q 169.2 -24.1 169 -25.1 Z " fill-rule="evenodd" fill="rgb(238,238,255)"/><path d=" M 213.6 2.6 L 212.9 2.4 L 212.6 3.2 L 213.6 2.6 Z  M 191.2 26.6 L 189.6 26.1 L 189.6 26.1 Q 189.6 26.2 189.7 26.4 L 189.7 26.4 L 189.7 26.4 Q 189.7 26.6 189.5 26.9 L 189.5 26.9 L 189.5 26.9 Q 188.8 27.8 188.6 27.9 L 188.6 27.9 L 188.2 26.9 L 188.6 25.8 L 185.2 24.7 L 185.2 24.7 Q 185 25.3 185 26.7 L 185 26.7 L 185 26.7 Q 184.9 28 184.8 28.6 L 184.8 28.6 L 184.1 26.3 L 184.3 25.4 L 183.7 25.2 L 183.2 24.2 L 183 25 L 183 25 Q 181.9 25.4 181.6 25.3 L 181.6 25.3 L 181.6 25.3 Q 181.4 25.2 181 24.2 L 181 24.2 L 181 24.2 Q 180.6 23.2 179.9 23 L 179.9 23 L 179.9 23 Q 178 19.3 178.4 17.8 L 178.4 17.8 L 178.4 17.8 Q 177.2 13.6 177.6 12.4 L 177.6 12.4 L 177.6 12.4 Q 177.9 11.1 177.3 10.9 L 177.3 10.9 L 176.5 10.7 L 176.5 10.7 Q 179.1 8.2 184.1 9.8 L 184.1 9.8 L 189 10.4 L 190.7 11.4 L 190.5 11.8 L 190.5 11.8 Q 190.1 13.1 190.8 13.4 L 190.8 13.4 L 189.8 16.8 L 190.2 16.8 L 190.2 16.8 Q 191.2 17.1 190.9 18.1 L 190.9 18.1 L 191.5 18.3 L 191.5 18.3 Q 193 17.8 195.8 15.9 L 195.8 15.9 L 195.4 14.8 L 195.7 13.9 L 195.3 12.9 L 195.9 11.2 L 193.6 10.6 L 193.6 10.6 Q 191.9 10.2 191.5 8.9 L 191.5 8.9 L 191.5 8.9 Q 191.3 8.9 190.6 8.6 L 190.6 8.6 L 190.6 8.6 Q 189.8 8.4 189 7.6 L 189 7.6 L 189 7.6 Q 188.2 6.8 188.1 5.8 L 188.1 5.8 L 187.2 6.5 L 187.2 6.5 Q 183.9 3.1 182.5 0.4 L 182.5 0.4 L 182.5 0.4 Q 180.7 -5.1 182.4 -14.2 L 182.4 -14.2 L 179.9 -18.7 L 179.9 -28.3 L 179.9 -32.4 Q 180 -32.8 180.5 -36.3 Q 180.1 -43.8 178.5 -47.1 Q 176.6 -50.6 170 -53.8 Q 175.3 -56.5 177.3 -57 L 196.5 -41 L 200.8 -38.7 Q 200.3 -38.8 200.6 -32.4 L 202.1 -32.4 L 202.1 -32.4 Q 202.3 -32.4 203.3 -31.4 L 203.3 -31.4 L 203.3 -31.4 Q 205.1 -31.3 206.5 -31.3 L 206.5 -31.3 L 206.5 -31.3 Q 207.8 -31.2 207.9 -31.3 L 207.9 -31.3 L 207.9 -31.3 Q 211.1 -30.3 212.8 -28.9 L 212.8 -28.9 L 212.8 -28.9 Q 214.5 -27.6 216.7 -24.3 L 216.7 -24.3 L 217 -24.6 L 217 -24.6 Q 217.6 -23.2 219 -20.6 L 219 -20.6 L 219 -20.6 Q 220.4 -18 221 -16.7 L 221 -16.7 L 220.7 -15.8 L 220 -16.1 L 213.6 2.6 L 214.3 2.8 L 214 3.7 L 213 4.4 L 212.3 3.6 L 212.3 3.6 Q 210.8 1.7 210.5 1.6 L 210.5 1.6 L 210.5 1.6 Q 210.1 1.4 210 1.4 L 210 1.4 L 209 2.1 L 207.3 -0.3 L 207 0.5 L 201.7 -1.2 L 201.7 -1.2 Q 200.2 -1.7 200.8 -3.6 L 200.8 -3.6 L 200.8 -3.6 Q 200.9 -4.1 201.7 -5.9 L 201.7 -5.9 L 200.8 -5.2 L 200 -7.4 L 198.7 -7.8 L 198.7 -7.8 Q 198.6 -7.9 197.9 -7.6 L 197.9 -7.6 L 197.9 -7.6 Q 197.2 -7.4 197.1 -7.4 L 197.1 -7.4 L 196.8 -6.5 L 195.9 -5.8 L 195.9 -5.8 Q 195.5 -4.5 195.9 -2.7 L 195.9 -2.7 L 195.9 -2.7 Q 196.3 -0.9 197.2 -0.6 L 197.2 -0.6 L 197 0.2 L 197.9 -0.4 L 197.9 -0.4 Q 201.1 0.6 204 4 L 204 4 L 204 4 Q 207.3 7.7 208 11.6 L 208 11.6 L 208 11.6 Q 208.4 13.8 207.9 15.2 L 207.9 15.2 L 207.9 15.2 Q 207.5 16.6 206.8 17.9 L 206.8 17.9 L 206.8 17.9 Q 206.1 19.3 205.6 19.2 L 205.6 19.2 L 205.6 19.2 Q 205.5 19.1 205.4 19 L 205.4 19 L 205.9 20 L 205.9 20 Q 205.6 21 204.3 22 L 204.3 22 L 204.3 22 Q 203 23.1 201.6 24.2 L 201.6 24.2 L 201.6 24.2 Q 200.3 25.3 199.9 26.6 L 199.9 26.6 L 197.7 28.7 L 197.4 29.9 L 196.6 29.6 L 196.5 30.3 L 195 30.6 L 195 30.6 Q 195 30.5 194.9 30.1 L 194.9 30.1 L 194.9 30.1 Q 194.7 28.9 194.8 28.8 L 194.8 28.8 L 196.7 29.4 L 195.3 27.1 L 192.2 27.9 L 191.9 28.8 L 191.9 28.8 Q 191 29.5 190.7 30.5 L 190.7 30.5 L 190.2 32 L 189.6 31.8 L 189.9 31 L 189.9 31 Q 190.6 28.5 191.5 27.7 L 191.5 27.7 L 191.8 26.6 L 191.8 26.6 Q 191.7 26.7 191.2 26.6 L 191.2 26.6 Z " fill-rule="evenodd" fill="rgb(245,245,245)"/><path d=" M 210 -30.5 C 204.6 -27 198.3 -25 191.5 -25 C 187.4 -25 183.5 -25.8 179.9 -27.1 L 179.9 -28.3 L 179.9 -30.2 C 183.5 -28.8 187.4 -28 191.5 -28 C 196.5 -28 201.2 -29.2 205.5 -31.3 Q 206 -31.3 206.5 -31.3 L 206.5 -31.3 L 206.5 -31.3 Q 207.8 -31.2 207.9 -31.3 L 207.9 -31.3 L 207.9 -31.3 Q 209 -30.9 210 -30.5 Z  M 202.4 -32.2 C 199 -30.9 195.3 -30.1 191.5 -30.1 C 187.4 -30.1 183.5 -31 179.9 -32.5 Q 180 -33.2 180.5 -36.3 Q 180.1 -43.8 178.5 -47.1 Q 176.6 -50.6 170 -53.8 Q 175.3 -56.5 177.3 -57 L 196.5 -41 L 200.8 -38.7 Q 200.3 -38.8 200.6 -32.4 L 202.1 -32.4 L 202.1 -32.4 Q 202.2 -32.4 202.4 -32.2 Z " fill-rule="evenodd" fill="rgb(255,193,7)"/><path d=" M 200.6 -38.1 Q 200.4 -36.8 200.6 -32.6 L 198.7 -36.4 L 200.6 -38.1 Z " fill-rule="evenodd" fill="rgb(237,120,153)"/></g></g></svg>