<?xml version="1.0" standalone="no"?><!-- Generator: Gravit.io --><svg xmlns="http://www.w3.org/2000/svg" xmlns:xlink="http://www.w3.org/1999/xlink" style="isolation:isolate" viewBox="-17 -63 112 117.597" width="112" height="117.597"><g><path d="M -12.983 -63 L 90.983 -63 C 93.2 -63 95 -61.2 95 -58.983 L 95 50.58 C 95 52.797 93.2 54.597 90.983 54.597 L -12.983 54.597 C -15.2 54.597 -17 52.797 -17 50.58 L -17 -58.983 C -17 -61.2 -15.2 -63 -12.983 -63 Z" style="stroke:none;fill:#000000;stroke-miterlimit:10;"/><path d=" M 34.143 23.452 L 34.143 23.452 L 33.635 23.408 L 33.407 22.308 L 32.878 23.365 L 32.878 23.365 Q 32.302 23.234 31.275 22.848 L 31.275 22.848 L 31.275 22.848 Q 28.924 22.087 27.872 22.305 L 27.872 22.305 L 27.872 22.305 Q 26.574 24.468 26.658 25.597 L 26.658 25.597 L 26.658 25.597 Q 25.893 25.755 25.501 24.341 L 25.501 24.341 L 25.395 24.312 L 24.334 23.036 L 24.334 23.036 Q 24.779 25.188 22.907 26.023 L 22.907 26.023 L 22.907 26.023 Q 21.564 21.215 18.982 21.749 L 18.982 21.749 L 18.982 21.749 Q 16.735 22.213 16.54 24.647 L 16.54 24.647 L 15.985 26.307 L 15.985 26.307 Q 13.733 26.025 12.903 22.008 L 12.903 22.008 L 10.724 10.741 L 10.724 10.741 Q 9.577 10.978 8.88 7.607 L 8.88 7.607 L 8.88 7.607 Q 8.183 4.236 8.177 3.24 L 8.177 3.24 L 8.177 3.24 Q 7.029 3.477 5.636 -3.265 L 5.636 -3.265 L 4.483 -9.808 L 4.483 -9.808 Q 3.594 -14.111 1.975 -19.411 L 1.975 -19.411 L 1.975 -19.411 Q 0.356 -24.711 -1.163 -27.239 L -1.163 -27.239 L 0.58 -28.696 L 0.363 -29.748 L -1.381 -28.291 L -1.598 -29.343 L -2.22 -32.22 L -2.22 -33.22 Q -1.692 -35.107 -12.47 -43.35 L -12.47 -43.35 L -10.757 -43.505 L -10.757 -43.505 Q -10.587 -43.889 -1.082 -47.474 L -1.082 -47.474 L -1.082 -47.474 Q 8.424 -51.058 10.002 -51.385 L 10.002 -51.385 L 12.44 -51.889 L 12.44 -51.889 Q 20.76 -53.608 25.535 -52.7 L 25.535 -52.7 L 25.535 -52.7 Q 29.486 -51.921 30.93 -50.724 L 30.93 -50.724 L 30.93 -50.724 Q 33.876 -48.291 34.646 -44.561 L 34.646 -44.561 L 34.646 -44.561 Q 36.129 -37.388 36.403 -17.002 L 36.403 -17.002 L 36.454 -10.481 L 36.454 -10.481 Q 35.928 -10.373 35.608 -10.955 L 35.608 -10.955 L 35.608 -10.955 Q 36.013 -8.994 35.302 -7.85 L 35.302 -7.85 L 35.302 -7.85 Q 34.591 -6.706 32.743 -5.277 L 32.743 -5.277 L 32.743 -5.277 Q 34.847 -5.712 36.146 -3.886 L 36.146 -3.886 L 36.146 -3.886 Q 37.446 -2.061 37.98 0.521 L 37.98 0.521 L 39.78 14.06 L 39.78 14.06 Q 41.908 17.137 41.425 19.381 L 39.78 21.749 L 37.78 21.974 Q 38.047 21.598 36.469 21.924 L 36.469 21.924 L 36.23 21.974 L 36.586 22.249 L 36.586 22.249 Q 35.099 23.255 34.143 23.452 Z  M 22.444 9.067 L 22.444 9.067 L 22.95 11.755 L 23.394 13.906 L 23.394 13.906 Q 23.586 13.867 24.59 13.659 L 24.59 13.659 L 24.59 13.659 Q 26.598 13.244 28.796 13.987 L 28.796 13.987 L 28.461 14.056 L 28.915 14.561 L 28.915 14.561 Q 28.579 12.935 29.25 11.599 L 29.25 11.599 L 28.45 7.726 L 28.45 7.726 Q 28.321 7.105 28.751 7.016 L 28.751 7.016 L 29.277 6.907 L 29.277 6.907 Q 29.188 6.477 28.529 5.94 L 28.529 5.94 L 28.529 5.94 Q 27.87 5.403 27.657 4.375 L 27.657 4.375 L 27.657 4.375 Q 27.445 3.347 27.412 2.705 L 27.412 2.705 L 27.412 2.705 Q 26.622 2.021 24.948 2.242 L 24.948 2.242 L 24.948 2.242 Q 23.273 2.464 22.558 1.415 L 22.558 1.415 L 22.558 1.415 Q 22.706 2.132 22.478 2.354 L 22.478 2.354 L 22.478 2.354 Q 22.25 2.576 21.895 2.549 L 21.895 2.549 L 21.895 2.549 Q 21.033 2.478 21.566 5.06 L 21.566 5.06 L 20.658 5.248 L 20.905 6.443 L 20.905 6.443 Q 21.861 6.246 22.444 9.067 Z  M 23.608 -20.043 L 23.608 -20.043 L 23.576 -20.684 L 23.576 -20.684 Q 22.565 -21.472 20.718 -21.24 L 20.718 -21.24 L 20.718 -21.24 Q 18.872 -21.008 17.756 -21.825 L 17.756 -21.825 L 17.993 -20.677 L 16.319 -20.331 L 17.359 -19.399 L 16.546 -19.231 L 16.625 -18.849 L 16.625 -18.849 Q 16.734 -18.323 16.917 -18.161 L 16.917 -18.161 L 17.089 -18.296 L 17.089 -18.296 Q 17.567 -18.395 18.397 -14.378 L 18.397 -14.378 L 18.733 -12.753 L 18.128 -11.58 L 18.94 -11.748 L 19.178 -10.601 L 19.178 -10.601 Q 19.464 -10.66 21.549 -10.343 L 21.549 -10.343 L 21.549 -10.343 Q 23.634 -10.026 23.904 -9.683 L 23.904 -9.683 L 23.766 -10.352 L 24.82 -10.321 L 24.651 -9.688 L 24.892 -9.488 L 24.892 -9.488 Q 24.714 -10.349 25.216 -10.453 L 25.216 -10.453 L 25.216 -10.453 Q 25.718 -10.556 25.264 -12.756 L 25.264 -12.756 L 24.096 -17.202 L 24.096 -17.202 Q 23.918 -18.062 24.442 -18.42 L 24.442 -18.42 L 24.442 -18.42 Q 23.875 -18.751 23.608 -20.043 Z " fill-rule="evenodd" fill="rgb(238,238,255)"/><path d=" M 80.917 14.712 L 79.984 14.422 L 79.637 15.541 L 80.917 14.712 Z  M 52.135 44.837 L 50.13 44.214 L 50.13 44.214 Q 50.101 44.308 50.153 44.554 L 50.153 44.554 L 50.153 44.554 Q 50.204 44.8 49.887 45.161 L 49.887 45.161 L 49.887 45.161 Q 49.03 46.276 48.803 46.512 L 48.803 46.512 L 48.297 45.179 L 48.731 43.78 L 44.441 42.448 L 44.441 42.448 Q 44.195 43.241 44.137 44.91 L 44.137 44.91 L 44.137 44.91 Q 44.079 46.579 43.833 47.372 L 43.833 47.372 L 42.939 44.487 L 43.286 43.368 L 42.494 43.122 L 41.833 41.792 L 41.514 42.818 L 41.514 42.818 Q 40.135 43.309 39.832 43.215 L 39.832 43.215 L 39.832 43.215 Q 39.528 43.121 38.977 41.851 L 38.977 41.851 L 38.977 41.851 Q 38.426 40.58 37.586 40.32 L 37.586 40.32 L 37.586 40.32 Q 35.142 35.675 35.614 33.828 L 35.614 33.828 L 35.614 33.828 Q 34.084 28.547 34.569 26.984 L 34.569 26.984 L 34.569 26.984 Q 35.054 25.422 34.214 25.162 L 34.214 25.162 L 33.188 24.843 L 33.188 24.843 Q 36.599 21.761 42.941 23.73 L 42.941 23.73 L 49.31 24.533 L 51.495 25.823 L 51.242 26.307 L 51.242 26.307 Q 50.735 27.939 51.668 28.229 L 51.668 28.229 L 50.336 32.519 L 50.846 32.524 L 50.846 32.524 Q 52.105 32.915 51.714 34.174 L 51.714 34.174 L 52.553 34.434 L 52.553 34.434 Q 54.378 33.825 58.097 31.401 L 58.097 31.401 L 57.544 30.053 L 57.906 28.887 L 57.463 27.676 L 58.144 25.485 L 55.195 24.773 L 55.195 24.773 Q 53.085 24.323 52.494 22.605 L 52.494 22.605 L 52.494 22.605 Q 52.246 22.58 51.29 22.283 L 51.29 22.283 L 51.29 22.283 Q 50.334 21.986 49.31 21.003 L 49.31 21.003 L 49.31 21.003 Q 48.286 20.021 48.152 18.803 L 48.152 18.803 L 46.933 19.601 L 46.933 19.601 Q 42.769 15.394 40.954 12.018 L 40.954 12.018 L 40.954 12.018 Q 38.626 5.125 40.821 -6.327 L 40.821 -6.327 L 37.586 -12 L 37.586 -24 L 37.586 -29.123 Q 37.657 -29.609 38.388 -34 Q 37.86 -43.506 35.726 -47.535 Q 33.361 -52.004 24.85 -56 Q 31.648 -59.391 34.214 -60 L 58.887 -40 L 64.514 -37 Q 63.837 -37.159 64.188 -29.123 L 66.188 -29.123 L 66.188 -29.123 Q 66.438 -29.188 67.655 -27.956 L 67.655 -27.956 L 67.655 -27.956 Q 70.044 -27.828 71.752 -27.732 L 71.752 -27.732 L 71.752 -27.732 Q 73.461 -27.636 73.597 -27.747 L 73.597 -27.747 L 73.597 -27.747 Q 77.748 -26.459 79.906 -24.766 L 79.906 -24.766 L 79.906 -24.766 Q 82.065 -23.073 84.883 -18.977 L 84.883 -18.977 L 85.355 -19.342 L 85.355 -19.342 Q 86.086 -17.581 87.921 -14.353 L 87.921 -14.353 L 87.921 -14.353 Q 89.757 -11.124 90.47 -9.471 L 90.47 -9.471 L 90.137 -8.398 L 89.205 -8.688 L 80.917 14.712 L 81.85 15.001 L 81.502 16.12 L 80.193 17.043 L 79.306 15.95 L 79.306 15.95 Q 77.341 13.55 76.921 13.42 L 76.921 13.42 L 76.921 13.42 Q 76.502 13.29 76.3 13.278 L 76.3 13.278 L 74.974 14.093 L 72.795 11.065 L 72.477 12.091 L 65.622 9.963 L 65.622 9.963 Q 63.71 9.369 64.477 6.898 L 64.477 6.898 L 64.477 6.898 Q 64.665 6.291 65.622 4.032 L 65.622 4.032 L 64.514 4.966 L 63.437 2.178 L 61.805 1.671 L 61.805 1.671 Q 61.665 1.628 60.737 1.902 L 60.737 1.902 L 60.737 1.902 Q 59.808 2.176 59.747 2.208 L 59.747 2.208 L 59.385 3.374 L 58.198 4.232 L 58.198 4.232 Q 57.706 5.818 58.201 8.093 L 58.201 8.093 L 58.201 8.093 Q 58.696 10.369 59.908 10.745 L 59.908 10.745 L 59.619 11.678 L 60.701 10.991 L 60.701 10.991 Q 64.805 12.265 68.614 16.465 L 68.614 16.465 L 68.614 16.465 Q 72.895 21.117 73.723 26.027 L 73.723 26.027 L 73.723 26.027 Q 74.197 28.781 73.661 30.507 L 73.661 30.507 L 73.661 30.507 Q 73.126 32.232 72.181 33.958 L 72.181 33.958 L 72.181 33.958 Q 71.236 35.684 70.676 35.511 L 70.676 35.511 L 70.676 35.511 Q 70.536 35.467 70.44 35.284 L 70.44 35.284 L 71.007 36.585 L 71.007 36.585 Q 70.645 37.751 68.958 39.068 L 68.958 39.068 L 68.958 39.068 Q 67.271 40.384 65.548 41.818 L 65.548 41.818 L 65.548 41.818 Q 63.825 43.251 63.347 44.79 L 63.347 44.79 L 60.483 47.429 L 60.159 48.964 L 59.133 48.646 L 58.887 49.438 L 56.966 49.864 L 56.966 49.864 Q 56.962 49.71 56.874 49.171 L 56.874 49.171 L 56.874 49.171 Q 56.673 47.677 56.717 47.537 L 56.717 47.537 L 59.235 48.319 L 57.368 45.439 L 53.406 46.509 L 53.058 47.629 L 53.058 47.629 Q 51.81 48.519 51.419 49.778 L 51.419 49.778 L 50.855 51.597 L 50.109 51.365 L 50.442 50.293 L 50.442 50.293 Q 51.383 47.262 52.52 46.234 L 52.52 46.234 L 52.954 44.835 L 52.954 44.835 Q 52.771 44.932 52.135 44.837 L 52.135 44.837 Z " fill-rule="evenodd" fill="rgb(245,245,245)"/><path d=" M 76.33 -26.766 C 69.417 -22.436 61.245 -19.932 52.494 -19.932 C 47.27 -19.932 42.253 -20.825 37.586 -22.465 L 37.586 -24 L 37.586 -26.433 C 42.205 -24.593 47.234 -23.583 52.494 -23.583 C 58.941 -23.583 65.04 -25.101 70.464 -27.804 Q 71.15 -27.766 71.752 -27.732 L 71.752 -27.732 L 71.752 -27.732 Q 73.461 -27.636 73.597 -27.747 L 73.597 -27.747 L 73.597 -27.747 Q 75.093 -27.283 76.33 -26.766 Z  M 66.55 -28.962 C 62.193 -27.257 57.452 -26.32 52.494 -26.32 C 47.221 -26.32 42.193 -27.379 37.613 -29.296 Q 37.745 -30.138 38.388 -34 Q 37.86 -43.506 35.726 -47.535 Q 33.361 -52.004 24.85 -56 Q 31.648 -59.391 34.214 -60 L 58.887 -40 L 64.514 -37 Q 63.837 -37.159 64.188 -29.123 L 66.188 -29.123 L 66.188 -29.123 Q 66.29 -29.149 66.55 -28.962 Z " fill-rule="evenodd" fill="rgb(255,193,7)"/><path d=" M 64.194 -36.313 Q 63.951 -34.707 64.178 -29.363 L 61.805 -34.109 L 64.194 -36.313 Z " fill-rule="evenodd" fill="rgb(237,120,153)"/></g></svg>